<?xml version="1.0" standalone="no"?>
<!DOCTYPE svg PUBLIC "-//W3C//DTD SVG 20010904//EN"
 "http://www.w3.org/TR/2001/REC-SVG-20010904/DTD/svg10.dtd">
<svg version="1.0" xmlns="http://www.w3.org/2000/svg"
 width="225.000000pt" height="225.000000pt" viewBox="0 0 225.000000 225.000000"
 preserveAspectRatio="xMidYMid meet">

<g transform="translate(0.000000,225.000000) scale(0.100000,-0.100000)"
fill="#000000" stroke="none">
<path d="M1073 1656 c-171 -33 -247 -81 -371 -233 -44 -55 -92 -107 -106 -116
-14 -10 -67 -27 -118 -38 -51 -12 -105 -28 -120 -35 -46 -23 -99 -76 -135
-131 -25 -39 -40 -53 -57 -53 -56 0 -81 -87 -38 -133 20 -21 21 -25 7 -37 -23
-19 -19 -67 10 -95 22 -23 32 -25 112 -25 l88 0 27 -50 c64 -116 208 -158 327
-96 34 19 84 73 105 114 l17 32 308 0 309 0 31 -54 c69 -124 235 -159 350 -75
23 16 53 52 69 79 l27 50 77 0 c89 0 121 10 143 44 18 27 14 56 -11 81 -11 11
-12 19 -4 34 29 55 -3 121 -59 121 -27 0 -29 3 -41 63 -42 195 -208 391 -413
488 -143 66 -377 95 -534 65z m392 -30 c86 -23 230 -97 300 -153 127 -103 210
-240 245 -403 11 -51 27 -106 35 -123 8 -16 15 -32 15 -34 0 -1 -35 -3 -78 -3
-72 0 -80 2 -89 23 -38 83 -117 130 -219 131 -62 1 -77 -3 -120 -29 -30 -19
-62 -51 -84 -83 l-34 -52 -138 0 -138 0 0 346 0 346 -62 -4 c-40 -2 -85 -14
-121 -31 -67 -31 -171 -125 -222 -203 -61 -91 -75 -84 169 -84 l216 0 0 -185
0 -185 -158 0 -158 0 -34 52 c-22 32 -54 64 -84 83 -43 26 -59 30 -120 30
-101 -1 -174 -43 -217 -127 l-19 -38 -80 0 -80 0 0 43 c0 144 122 279 278 307
101 19 142 40 198 105 177 209 244 257 399 285 77 14 330 5 400 -14z m-325
-196 l0 -150 -206 0 -205 0 23 41 c33 59 129 161 186 197 46 30 134 60 180 61
22 1 22 0 22 -149z m-440 -412 c91 -55 129 -154 99 -263 -15 -54 -93 -130
-151 -146 -146 -39 -288 66 -288 214 0 135 91 227 225 227 51 0 70 -5 115 -32z
m1075 11 c165 -78 168 -317 6 -401 -96 -50 -199 -32 -272 49 -46 51 -63 100
-57 169 13 155 181 250 323 183z m-1590 -6 c-3 -10 -9 -39 -12 -65 -6 -53 -9
-55 -35 -31 -24 21 -23 68 2 93 25 25 55 27 45 3z m1923 -49 c2 -27 -2 -45
-12 -54 -14 -11 -19 -6 -36 31 -28 62 -26 71 13 67 30 -3 32 -6 35 -44z
m-1763 -144 l0 -60 -67 0 c-73 0 -114 12 -134 38 -19 24 -17 39 6 62 17 17 33
20 108 20 l87 0 0 -60z m1091 0 l-1 -60 -305 0 -305 0 -1 60 -1 60 307 0 307
0 -1 -60z m676 43 c26 -23 23 -59 -7 -79 -15 -9 -56 -18 -105 -21 l-80 -6 0
46 c0 25 -3 52 -6 61 -9 24 171 23 198 -1z"/>
<path d="M1235 1588 c-3 -8 -4 -83 -3 -168 l3 -155 308 -3 c282 -2 307 -1 307
14 0 10 -39 56 -87 103 -100 98 -200 157 -324 190 -104 27 -198 36 -204 19z
m147 -22 c165 -32 322 -124 419 -247 l31 -39 -291 0 -291 0 0 150 0 150 29 0
c16 0 63 -6 103 -14z"/>
<path d="M1004 1206 c-13 -35 0 -51 45 -54 51 -4 66 7 57 42 -6 23 -11 26 -52
26 -30 0 -46 -5 -50 -14z m83 -7 c19 -19 3 -39 -32 -39 -36 0 -50 12 -41 35 6
18 57 20 73 4z"/>
<path d="M518 934 c-77 -41 -75 -169 2 -209 38 -19 100 -19 128 1 49 34 66
109 37 164 -28 55 -109 76 -167 44z m137 -35 c82 -79 -14 -213 -118 -164 -86
41 -82 152 8 191 39 17 73 8 110 -27z"/>
<path d="M1630 943 c-30 -11 -70 -57 -76 -89 -15 -79 41 -144 123 -144 115 0
160 153 64 217 -32 22 -77 28 -111 16z m113 -37 c52 -48 46 -124 -13 -164
-102 -69 -218 72 -131 159 39 39 105 41 144 5z"/>
</g>
</svg>
